<svg xmlns="http://www.w3.org/2000/svg" width="25.119" height="27" viewBox="0 0 25.119 27">
  <path id="Icon_awesome-instagram" data-name="Icon awesome-instagram" d="M12.557,8.815a6.683,6.683,0,0,0-6.439,6.922,6.683,6.683,0,0,0,6.439,6.922A6.683,6.683,0,0,0,19,15.738,6.683,6.683,0,0,0,12.557,8.815Zm0,11.423a4.36,4.36,0,0,1-4.186-4.5,4.356,4.356,0,0,1,4.186-4.5,4.356,4.356,0,0,1,4.186,4.5,4.36,4.36,0,0,1-4.186,4.5Zm8.2-11.706a1.506,1.506,0,1,1-3,0,1.506,1.506,0,1,1,3,0Zm4.264,1.639A8.334,8.334,0,0,0,23,4.514a7.2,7.2,0,0,0-5.262-2.181c-2.073-.127-8.288-.127-10.361,0A7.187,7.187,0,0,0,2.112,4.508,8.361,8.361,0,0,0,.083,10.165c-.118,2.229-.118,8.911,0,11.14a8.334,8.334,0,0,0,2.029,5.657,7.208,7.208,0,0,0,5.262,2.181c2.073.127,8.288.127,10.361,0A7.152,7.152,0,0,0,23,26.962,8.389,8.389,0,0,0,25.025,21.3c.118-2.229.118-8.9,0-11.134ZM22.346,23.7a4.41,4.41,0,0,1-2.387,2.567c-1.653.7-5.576.542-7.4.542s-5.755.157-7.4-.542A4.41,4.41,0,0,1,2.767,23.7c-.656-1.777-.5-5.995-.5-7.959s-.146-6.187.5-7.959A4.41,4.41,0,0,1,5.154,5.212c1.653-.7,5.576-.542,7.4-.542s5.755-.157,7.4.542a4.41,4.41,0,0,1,2.387,2.567c.656,1.777.5,5.995.5,7.959S23,21.925,22.346,23.7Z" transform="translate(0.005 -2.238)" fill="#6f8d75"/>
</svg>
